<mxfile host="app.diagrams.net" modified="2024-02-01T15:01:42.356Z" agent="Mozilla/5.0 (Windows NT 10.0; Win64; x64; rv:121.0) Gecko/20100101 Firefox/121.0" etag="mk5zT1hmPygkAi3OqQa2" version="23.1.0" type="github">
  <diagram name="Page-1" id="yjmy-_Jm7A7RnwuGHaf3">
    <mxGraphModel dx="794" dy="414" grid="1" gridSize="10" guides="1" tooltips="1" connect="1" arrows="1" fold="1" page="1" pageScale="1" pageWidth="850" pageHeight="1100" math="0" shadow="0">
      <root>
        <mxCell id="0" />
        <mxCell id="1" parent="0" />
        <mxCell id="KHJP2_RX8QuQa-9L3WRr-1" value="" style="sketch=0;outlineConnect=0;fontColor=#232F3E;gradientColor=none;fillColor=#004080;strokeColor=none;dashed=0;verticalLabelPosition=bottom;verticalAlign=top;align=center;html=1;fontSize=12;fontStyle=0;aspect=fixed;pointerEvents=1;shape=mxgraph.aws4.customer_gateway;" vertex="1" parent="1">
          <mxGeometry x="242" y="142" width="48" height="48" as="geometry" />
        </mxCell>
        <mxCell id="KHJP2_RX8QuQa-9L3WRr-2" value="MPLS" style="sketch=0;outlineConnect=0;gradientColor=none;html=1;whiteSpace=wrap;fontSize=12;fontStyle=0;shape=mxgraph.aws4.group;grIcon=mxgraph.aws4.group_aws_cloud;strokeColor=#858B94;fillColor=none;verticalAlign=top;align=left;spacingLeft=30;fontColor=#858B94;dashed=0;" vertex="1" parent="1">
          <mxGeometry x="290" y="140" width="130" height="50" as="geometry" />
        </mxCell>
        <mxCell id="KHJP2_RX8QuQa-9L3WRr-3" value="" style="sketch=0;pointerEvents=1;shadow=0;dashed=0;html=1;strokeColor=none;fillColor=#005F4B;labelPosition=center;verticalLabelPosition=bottom;verticalAlign=top;align=center;outlineConnect=0;shape=mxgraph.veeam2.datacenter;" vertex="1" parent="1">
          <mxGeometry x="460" y="270" width="83" height="53" as="geometry" />
        </mxCell>
        <mxCell id="KHJP2_RX8QuQa-9L3WRr-9" style="edgeStyle=orthogonalEdgeStyle;rounded=0;orthogonalLoop=1;jettySize=auto;html=1;endArrow=none;endFill=0;" edge="1" parent="1" source="KHJP2_RX8QuQa-9L3WRr-7" target="KHJP2_RX8QuQa-9L3WRr-2">
          <mxGeometry relative="1" as="geometry">
            <mxPoint x="510" y="140" as="targetPoint" />
          </mxGeometry>
        </mxCell>
        <mxCell id="KHJP2_RX8QuQa-9L3WRr-13" style="edgeStyle=orthogonalEdgeStyle;rounded=0;orthogonalLoop=1;jettySize=auto;html=1;endArrow=none;endFill=0;" edge="1" parent="1" source="KHJP2_RX8QuQa-9L3WRr-7" target="KHJP2_RX8QuQa-9L3WRr-3">
          <mxGeometry relative="1" as="geometry" />
        </mxCell>
        <mxCell id="KHJP2_RX8QuQa-9L3WRr-7" value="" style="sketch=0;pointerEvents=1;shadow=0;dashed=0;html=1;strokeColor=none;fillColor=#505050;labelPosition=center;verticalLabelPosition=bottom;verticalAlign=top;outlineConnect=0;align=center;shape=mxgraph.office.concepts.firewall;" vertex="1" parent="1">
          <mxGeometry x="450" y="200" width="47" height="43" as="geometry" />
        </mxCell>
        <mxCell id="KHJP2_RX8QuQa-9L3WRr-12" style="edgeStyle=orthogonalEdgeStyle;rounded=0;orthogonalLoop=1;jettySize=auto;html=1;endArrow=none;endFill=0;" edge="1" parent="1" source="KHJP2_RX8QuQa-9L3WRr-11" target="KHJP2_RX8QuQa-9L3WRr-2">
          <mxGeometry relative="1" as="geometry" />
        </mxCell>
        <mxCell id="KHJP2_RX8QuQa-9L3WRr-11" value="Internet" style="ellipse;shape=cloud;whiteSpace=wrap;html=1;" vertex="1" parent="1">
          <mxGeometry x="295" width="120" height="80" as="geometry" />
        </mxCell>
        <mxCell id="KHJP2_RX8QuQa-9L3WRr-18" style="rounded=0;orthogonalLoop=1;jettySize=auto;html=1;exitX=0.75;exitY=1;exitDx=0;exitDy=0;exitPerimeter=0;endArrow=none;endFill=0;" edge="1" parent="1" source="KHJP2_RX8QuQa-9L3WRr-14" target="KHJP2_RX8QuQa-9L3WRr-15">
          <mxGeometry relative="1" as="geometry" />
        </mxCell>
        <mxCell id="KHJP2_RX8QuQa-9L3WRr-14" value="" style="sketch=0;points=[[0.015,0.015,0],[0.985,0.015,0],[0.985,0.985,0],[0.015,0.985,0],[0.25,0,0],[0.5,0,0],[0.75,0,0],[1,0.25,0],[1,0.5,0],[1,0.75,0],[0.75,1,0],[0.5,1,0],[0.25,1,0],[0,0.75,0],[0,0.5,0],[0,0.25,0]];verticalLabelPosition=bottom;html=1;verticalAlign=top;aspect=fixed;align=center;pointerEvents=1;shape=mxgraph.cisco19.rect;prIcon=l2_switch;fillColor=#FAFAFA;strokeColor=#005073;" vertex="1" parent="1">
          <mxGeometry x="220" y="260" width="40" height="40" as="geometry" />
        </mxCell>
        <mxCell id="KHJP2_RX8QuQa-9L3WRr-15" value="" style="sketch=0;points=[[0.015,0.015,0],[0.985,0.015,0],[0.985,0.985,0],[0.015,0.985,0],[0.25,0,0],[0.5,0,0],[0.75,0,0],[1,0.25,0],[1,0.5,0],[1,0.75,0],[0.75,1,0],[0.5,1,0],[0.25,1,0],[0,0.75,0],[0,0.5,0],[0,0.25,0]];verticalLabelPosition=bottom;html=1;verticalAlign=top;aspect=fixed;align=center;pointerEvents=1;shape=mxgraph.cisco19.rect;prIcon=l2_switch;fillColor=#FAFAFA;strokeColor=#005073;" vertex="1" parent="1">
          <mxGeometry x="260" y="350" width="40" height="40" as="geometry" />
        </mxCell>
        <mxCell id="KHJP2_RX8QuQa-9L3WRr-16" value="" style="sketch=0;points=[[0.015,0.015,0],[0.985,0.015,0],[0.985,0.985,0],[0.015,0.985,0],[0.25,0,0],[0.5,0,0],[0.75,0,0],[1,0.25,0],[1,0.5,0],[1,0.75,0],[0.75,1,0],[0.5,1,0],[0.25,1,0],[0,0.75,0],[0,0.5,0],[0,0.25,0]];verticalLabelPosition=bottom;html=1;verticalAlign=top;aspect=fixed;align=center;pointerEvents=1;shape=mxgraph.cisco19.rect;prIcon=l2_switch;fillColor=#FAFAFA;strokeColor=#005073;" vertex="1" parent="1">
          <mxGeometry x="180" y="350" width="40" height="40" as="geometry" />
        </mxCell>
        <mxCell id="KHJP2_RX8QuQa-9L3WRr-17" style="rounded=0;orthogonalLoop=1;jettySize=auto;html=1;entryX=0.75;entryY=0;entryDx=0;entryDy=0;entryPerimeter=0;endArrow=none;endFill=0;edgeStyle=orthogonalEdgeStyle;" edge="1" parent="1" source="KHJP2_RX8QuQa-9L3WRr-1" target="KHJP2_RX8QuQa-9L3WRr-14">
          <mxGeometry relative="1" as="geometry" />
        </mxCell>
        <mxCell id="KHJP2_RX8QuQa-9L3WRr-19" style="rounded=0;orthogonalLoop=1;jettySize=auto;html=1;exitX=0.25;exitY=1;exitDx=0;exitDy=0;exitPerimeter=0;entryX=0.5;entryY=0;entryDx=0;entryDy=0;entryPerimeter=0;endArrow=none;endFill=0;" edge="1" parent="1" source="KHJP2_RX8QuQa-9L3WRr-14" target="KHJP2_RX8QuQa-9L3WRr-16">
          <mxGeometry relative="1" as="geometry" />
        </mxCell>
        <mxCell id="KHJP2_RX8QuQa-9L3WRr-20" value="&lt;font style=&quot;font-size: 10px;&quot;&gt;CoreSW&lt;/font&gt;" style="text;html=1;align=center;verticalAlign=middle;resizable=0;points=[];autosize=1;strokeColor=none;fillColor=none;" vertex="1" parent="1">
          <mxGeometry x="170" y="260" width="60" height="30" as="geometry" />
        </mxCell>
        <mxCell id="KHJP2_RX8QuQa-9L3WRr-21" value="&lt;font color=&quot;#ababab&quot;&gt;SITA DC&lt;/font&gt;" style="text;html=1;align=center;verticalAlign=middle;resizable=0;points=[];autosize=1;strokeColor=none;fillColor=none;" vertex="1" parent="1">
          <mxGeometry x="355" y="140" width="70" height="30" as="geometry" />
        </mxCell>
        <mxCell id="KHJP2_RX8QuQa-9L3WRr-22" value="" style="sketch=0;pointerEvents=1;shadow=0;dashed=0;html=1;strokeColor=none;fillColor=#005F4B;labelPosition=center;verticalLabelPosition=bottom;verticalAlign=top;align=center;outlineConnect=0;shape=mxgraph.veeam2.datacenter;" vertex="1" parent="1">
          <mxGeometry x="392" y="159.5" width="23" height="13" as="geometry" />
        </mxCell>
        <mxCell id="KHJP2_RX8QuQa-9L3WRr-23" value="&lt;font style=&quot;font-size: 10px;&quot;&gt;ACC01&lt;/font&gt;" style="text;html=1;align=center;verticalAlign=middle;resizable=0;points=[];autosize=1;strokeColor=none;fillColor=none;" vertex="1" parent="1">
          <mxGeometry x="140" y="380" width="50" height="30" as="geometry" />
        </mxCell>
        <mxCell id="KHJP2_RX8QuQa-9L3WRr-24" value="&lt;font style=&quot;font-size: 10px;&quot;&gt;ACC02&lt;/font&gt;" style="text;html=1;align=center;verticalAlign=middle;resizable=0;points=[];autosize=1;strokeColor=none;fillColor=none;" vertex="1" parent="1">
          <mxGeometry x="280" y="380" width="50" height="30" as="geometry" />
        </mxCell>
        <mxCell id="KHJP2_RX8QuQa-9L3WRr-25" value="&lt;font style=&quot;font-size: 10px;&quot;&gt;SITA Rtr&lt;/font&gt;" style="text;html=1;align=center;verticalAlign=middle;resizable=0;points=[];autosize=1;strokeColor=none;fillColor=none;" vertex="1" parent="1">
          <mxGeometry x="190" y="142.5" width="60" height="30" as="geometry" />
        </mxCell>
        <mxCell id="KHJP2_RX8QuQa-9L3WRr-27" value="&lt;font style=&quot;font-size: 10px;&quot;&gt;Firewall&lt;/font&gt;" style="text;html=1;align=center;verticalAlign=middle;resizable=0;points=[];autosize=1;strokeColor=none;fillColor=none;" vertex="1" parent="1">
          <mxGeometry x="490" y="190" width="60" height="30" as="geometry" />
        </mxCell>
        <mxCell id="KHJP2_RX8QuQa-9L3WRr-28" value="&lt;font style=&quot;font-size: 10px;&quot;&gt;NDC2 DC&lt;/font&gt;" style="text;html=1;align=center;verticalAlign=middle;resizable=0;points=[];autosize=1;strokeColor=none;fillColor=none;" vertex="1" parent="1">
          <mxGeometry x="473" y="320" width="70" height="30" as="geometry" />
        </mxCell>
      </root>
    </mxGraphModel>
  </diagram>
</mxfile>
